PathFileType	4	(X/Y/Z)	C:\Users\°ÂÌØÂü\Desktop\20210112\bx_y_10_502-Unnamed.trc
DataRate	CameraRate	NumFrames	NumMarkers	Units	OrigDataRate	OrigDataStartFrame	OrigNumFrames
50.00	50.00	       4	0	mm	50.00	312	       499
Frame#	Time	
		

312	6.220	-832.96362	-40.56670	604.32184	-779.35724	203.82492	532.86224	-836.07465	274.87366	865.74414	-770.99957	207.74667	807.26373				-493.77710	-88.43074	1357.58496	-860.05554	246.83485	620.05573	-845.21844	242.29799	560.98798	-771.56329	7.07754	522.28973	-865.13416	253.92792	481.25720	-804.45386	141.14810	563.93982	-764.66888	-20.01980	795.54059	-779.97363	-16.06944	1004.24829	-778.40363	227.34697	199.32527	-882.63617	296.28104	144.71733	-678.52789	51.78174	164.43004	-606.40491	18.23612	168.86293	-677.85217	176.77562	163.17316	-598.47864	225.26465	174.63771	-667.68817	301.49063	157.73500	-629.46991	308.11081	160.93558	-563.04193	259.67654	164.98074	-528.02209	304.13187	146.35739	-298.39877	91.87068	1580.24182	-496.83759	250.97963	1364.23267				-517.93054	-72.55260	142.99892	-800.71075	176.33084	180.76860							-776.04059	-12.76030	199.51524	-799.48712	49.56985	171.92227	-856.58557	-46.01975	466.78888	-666.56122	-70.74203	159.03970	-876.05151	-78.64049	141.43311	-730.46930	68.90682	221.76761				-563.24426	-36.94614	163.55835	-623.93713	-81.03679	156.83412	-862.89661	275.84918	731.65906	-967.97394	77.74544	1079.66797	-722.32355	158.61160	221.53160	-833.18207	-36.43769	553.88696	
313	6.240	-835.38251	-41.25010	603.98083	-781.34546	203.85629	532.55664	-839.92474	273.86072	864.60773	-773.78802	207.63486	806.35071	-863.45612	-65.03560	698.15088	-488.34381	-88.59873	1347.58411	-862.36920	246.98410	619.21527	-846.75366	242.51743	560.36292	-773.63104	6.85319	522.11737	-866.66632	254.14513	480.54385	-806.81805	140.98796	563.69080	-768.67987	-20.10891	794.60242				-778.80109	227.74651	199.53343	-882.51447	296.03040	144.60242	-678.53497	51.58861	164.75418	-606.28278	18.17402	168.83716	-677.85217	176.77562	163.17316	-598.78802	225.21815	174.48592	-667.80298	301.55807	157.70241	-629.48132	308.12146	160.98904	-563.07166	259.49258	164.56580	-527.98663	304.02960	146.35426	-291.45944	92.07464	1567.56213	-491.61847	250.55351	1353.86609				-518.07434	-72.39948	142.80666	-800.77533	176.38681	180.70834							-775.49493	-13.12059	199.76038	-799.63733	49.45798	172.10152	-857.94458	-46.62957	466.02356	-666.59393	-70.71918	159.25426	-876.04663	-78.59055	141.48270	-730.74670	69.06580	221.82492				-563.26837	-36.89038	163.59177	-624.03864	-81.05163	156.84761	-865.73212	276.10730	730.93933	-969.83142	77.69588	1079.86560	-722.29041	158.72946	221.68530	-835.37354	-36.60860	553.14203	
314	6.260	-837.62842	-41.70781	603.07965	-782.99078	203.38734	532.43903	-842.97156	273.33499	863.42041	-777.05994	206.92097	805.29260	-866.62299	-65.38884	697.59467	-483.13626	-87.46799	1337.42542	-864.64594	247.39653	618.90332	-849.06104	242.23265	559.75635	-775.27692	6.79496	521.84167	-867.78992	254.58580	480.12729	-809.54279	141.12813	563.17731	-771.45032	-20.44128	794.05774				-778.80109	227.74651	199.53343	-882.51044	296.12030	144.67557	-678.64624	51.55644	164.83960	-606.57745	18.01755	168.75398	-677.91998	176.54021	163.59540	-598.79834	225.17790	174.16382	-667.69452	301.52539	157.68968	-629.38965	308.10770	160.94434	-563.07166	259.49258	164.56580	-528.00397	304.18887	146.61906	-284.85916	92.63519	1554.95093	-486.97183	250.67152	1344.15527				-517.87592	-72.51461	142.89218	-801.14417	176.46713	180.70509							-775.57611	-13.14609	199.39055	-799.75848	49.29560	171.90398	-859.55536	-47.60888	465.53912	-666.54504	-70.78345	158.95555	-876.03320	-78.59757	141.50241	-730.82147	68.57293	221.76823				-563.47687	-36.73392	163.55344	-623.86151	-81.12771	156.93176	-868.64557	276.14996	730.00177	-971.91718	77.20599	1080.31824	-722.26617	158.87450	221.92039	-837.42181	-37.63120	552.66254	
315	6.280	-839.39124	-41.88394	602.55396	-784.40515	203.26125	532.52368	-845.85437	273.49661	862.70593	-780.07300	207.18437	804.61829	-868.91034	-65.80277	696.27612	-477.80048	-86.49918	1326.80774	-867.71332	247.00558	618.40210	-850.55713	242.41351	559.47925	-777.14185	6.35800	521.32019	-869.57861	254.31007	479.50455	-810.46588	140.55655	562.31891	-774.80896	-20.90883	794.10193				-778.85559	227.82472	199.55995	-882.39606	296.09891	144.73637	-678.70441	51.31244	164.67172	-606.39941	18.27235	168.67760	-678.08923	176.71002	163.66573	-598.79834	225.17790	174.16382	-667.68127	301.36392	157.72443	-629.35400	308.09369	161.09106	-563.07166	259.49258	164.56580	-527.99158	304.08527	146.48961	-279.04517	92.95473	1542.60840	-482.19437	250.41689	1333.84045				-517.97583	-72.54118	142.77574	-801.20557	176.41345	180.74425							-776.05518	-13.78164	199.18726	-799.53979	49.19033	172.03911	-860.61755	-47.46125	464.63788	-666.55078	-70.89748	158.85674	-876.13446	-78.66106	141.72231	-731.10632	68.34214	221.91266				-563.20062	-36.80794	163.44405	-623.81946	-81.27844	156.82137	-871.56989	276.63559	729.15039	-974.29980	76.76038	1080.93945	-722.41699	158.68927	221.93123	-838.79053	-37.85490	552.23853	
